<?xml version="1.0" encoding="UTF-8"?>
<svg width="897px" height="468px" viewBox="0 0 897 468" version="1.1" xmlns="http://www.w3.org/2000/svg" xmlns:xlink="http://www.w3.org/1999/xlink">
    <title>Group 2</title>
    <g id="Page-1" stroke="none" stroke-width="1" fill="none" fill-rule="evenodd">
        <g id="Group-2">
            <rect id="Rectangle" x="1" y="0" width="896" height="468"></rect>
            <g id="happy-prime-logo-yellow-mark-white-text" transform="translate(0.000000, 113.000000)" fill-rule="nonzero">
                <g id="Group" transform="translate(279.000000, 98.000000)" fill="#3F403F">
                    <polygon id="Path" points="1.00003636 42.9229091 6.60248727 42.9229091 6.60248727 5.12290909 1.00003636 5.12290909 1.00003636 0.220363636 18.9332727 0.220363636 18.9332727 5.12290909 13.0589018 5.12290909 13.0589018 20.2887273 35.4754473 20.2887273 35.4754473 5.12290909 29.5583782 5.12290909 29.5583782 0.220363636 47.4916145 0.220363636 47.4916145 5.12290909 41.75208 5.12290909 41.75208 42.9229091 47.3567782 42.9229091 47.3567782 47.7796364 29.4235418 47.7796364 29.4235418 42.9229091 35.1630764 42.9229091 35.1630764 25.6036364 12.7465309 25.6036364 12.7465309 42.9229091 18.4838182 42.9229091 18.4838182 47.7796364 0.550581818 47.7796364"></polygon>
                    <path d="M102.412713,0.220363636 L102.412713,5.12290909 L97.9294036,5.12290909 C99.8126182,10.7127273 101.246378,15.1570909 102.412713,18.5018182 C103.579047,21.8465455 104.206036,24 104.520655,25.0538182 C105.552153,28.2152727 106.538705,31.2850909 107.435367,34.2174545 C108.332029,37.1498182 109.183745,40.128 109.900625,42.8312727 L115.415433,42.8312727 L115.415433,47.688 L97.2574691,47.688 L97.2574691,42.9229091 L103.309375,42.9229091 L99.8575636,30.2770909 L81.9243273,30.2770909 L78.5174618,42.9229091 L84.4794764,42.9229091 L84.4794764,47.7796364 L66.2765673,47.7796364 L66.2765673,42.9229091 L71.83632,42.9229091 C72.6003927,39.9905455 73.4948073,36.9207273 74.4364145,33.7592727 C75.3802691,30.5978182 76.3645745,27.3447273 77.4410182,24.0916364 C78.5174618,20.8385455 79.5040145,17.5854545 80.5782109,14.3781818 C81.6569018,11.1709091 82.6412073,8.10109091 83.6727055,5.21454545 L79.6366036,5.21454545 L79.6366036,0.220363636 L102.412713,0.220363636 Z M98.8710109,25.2829091 C98.3316655,23.496 97.6147855,20.7010909 96.63048,17.6312727 C95.64168,14.5614545 94.3427564,10.1170909 92.6393236,5.12290909 L89.41224,5.12290909 C87.9869973,9.26513744 86.6413727,13.4353897 85.3761382,17.6312727 C84.3895855,20.9301818 83.62776,23.496 83.1356073,25.2829091 L98.8710109,25.2829091 L98.8710109,25.2829091 Z M134.425113,42.9229091 L140.477018,42.9229091 L140.477018,5.12290909 L134.425113,5.12290909 L134.425113,0.220363636 L155.900051,0.220363636 C158.609142,0.125523656 161.308864,0.593177722 163.835171,1.59490909 C165.690991,2.34147984 167.360608,3.49964719 168.722989,4.98545455 C169.866851,6.30730909 170.707331,7.872 171.188247,9.56727273 C171.6226,11.1643078 171.849266,12.8125913 171.862429,14.4698182 C171.958621,16.813147 171.47972,19.1439098 170.46912,21.2509091 C169.571606,23.0076864 168.204128,24.4692346 166.525156,25.4661818 C164.677357,26.5712118 162.637756,27.3023951 160.518196,27.6196364 C157.999004,28.0388727 155.448349,28.2381818 152.895447,28.2152727 L147.245804,28.2152727 L147.245804,42.8312727 L153.612327,42.8312727 L153.612327,47.688 L134.425113,47.688 L134.425113,42.9229091 L134.425113,42.9229091 Z M146.933433,24 L154.106727,24 C155.955468,24.0313604 157.798623,23.784334 159.576589,23.2669091 C160.835817,22.8706804 161.986977,22.1803788 162.938509,21.2509091 C163.776742,20.4307636 164.392495,19.4067273 164.731833,18.2727273 C165.057687,17.0493818 165.226233,15.7848 165.226233,14.5156364 C165.380981,11.9632096 164.524428,9.45424667 162.848618,7.55127273 C161.034083,5.827271 158.59927,4.94792057 156.124778,5.12290909 L147.15816,5.12290909 L146.933433,24 L146.933433,24 Z M190.69008,42.9229091 L196.786931,42.9229091 L196.786931,5.12290909 L190.69008,5.12290909 L190.69008,0.220363636 L212.165018,0.220363636 C214.874861,0.125211598 217.575378,0.592870988 220.102385,1.59490909 C221.9574,2.3417778 223.626223,3.49992712 224.987956,4.98545455 C226.134065,6.30730909 226.974545,7.872 227.453215,9.56727273 C227.887567,11.1643078 228.114234,12.8125913 228.127396,14.4698182 C228.224286,16.8129531 227.746159,19.143706 226.736335,21.2509091 C225.83882,23.0076864 224.471342,24.4692346 222.792371,25.4661818 C220.943889,26.5714883 218.903499,27.3026806 216.783164,27.6196364 C214.279702,28.0388727 211.744778,28.2381818 209.207607,28.2152727 L203.288291,28.2152727 L203.288291,42.8312727 L209.654815,42.8312727 L209.654815,47.688 L190.69008,47.688 L190.69008,42.9229091 L190.69008,42.9229091 Z M203.1984,24 L210.41664,24 C212.250658,24.0322396 214.07912,23.7851521 215.841556,23.2669091 C217.114199,22.8710501 218.280067,22.1811517 219.248422,21.2509091 C220.05744,20.4147273 220.657462,19.3952727 220.999047,18.2727273 C221.324902,17.0493818 221.4912,15.7848 221.4912,14.5156364 C221.646559,11.9635317 220.790829,9.45461024 219.115833,7.55127273 C217.30075,5.82666876 214.864998,4.94727307 212.389745,5.12290909 L203.423127,5.12290909 L203.1984,24 L203.1984,24 Z" id="Shape"></path>
                    <path d="M261.034211,42.9229091 L267.44568,42.9229091 L267.44568,25.9243636 L253.0092,5.07709091 L247.137076,5.07709091 L247.137076,0.220363636 L266.144509,0.220363636 L266.144509,5.07709091 L260.092604,5.07709091 L271.167164,21.0676364 L281.747324,5.07709091 L275.470691,5.07709091 L275.470691,0.220363636 L294.033164,0.220363636 L294.033164,5.07709091 L287.711585,5.07709091 L273.902095,25.9243636 L273.902095,42.9229091 L280.493345,42.9229091 L280.493345,47.7338182 L261.034211,47.7338182 L261.034211,42.9229091 Z M328.865891,24 C328.865891,28.5039273 325.292727,32.1556364 320.888073,32.1556364 C316.475475,32.1493143 312.903039,28.4982803 312.908002,24 C312.908002,19.4960727 316.481171,15.8443636 320.885825,15.8443636 C323.005251,15.8467926 325.036923,16.7074096 326.533898,18.2368884 C328.030872,19.7663672 328.870524,21.8394207 328.868143,24 L328.865891,24 Z" id="Shape"></path>
                    <path d="M347.787927,42.9229091 L353.839833,42.9229091 L353.839833,5.12290909 L347.787927,5.12290909 L347.787927,0.220363636 L369.262865,0.220363636 C371.971956,0.125523656 374.671679,0.593177722 377.197985,1.59490909 C379.053806,2.34147984 380.723423,3.49964719 382.085804,4.98545455 C383.229665,6.30730909 384.072393,7.872 384.551062,9.56727273 C384.985414,11.1643078 385.212081,12.8125913 385.225244,14.4698182 C385.321436,16.813147 384.842534,19.1439098 383.831935,21.2509091 C382.93442,23.0076864 381.566942,24.4692346 379.887971,25.4661818 C378.040172,26.5712118 376.000571,27.3023951 373.881011,27.6196364 C371.377549,28.0388727 368.842625,28.2381818 366.303207,28.2152727 L360.386138,28.2152727 L360.386138,42.8312727 L366.932444,42.8312727 L366.932444,47.688 L347.965462,47.688 L347.78568,42.9229091 L347.787927,42.9229091 Z M360.296247,24 L367.514487,24 C369.348313,24.028854 371.176288,23.7818325 372.939404,23.2669091 C374.212046,22.8710501 375.377915,22.1811517 376.346269,21.2509091 C377.155287,20.4147273 377.753062,19.3952727 378.094647,18.2727273 C378.422749,17.0493818 378.589047,15.7848 378.589047,14.5156364 C378.743795,11.9632096 377.887242,9.45424667 376.211433,7.55127273 C374.396897,5.827271 371.962084,4.94792057 369.487593,5.12290909 L360.520975,5.12290909 L360.296247,24 L360.296247,24 Z M404.142785,42.9229091 L410.734036,42.9229091 L410.734036,5.12290909 L404.142785,5.12290909 L404.142785,0.220363636 L426.559331,0.220363636 C428.878516,0.183709091 431.188713,0.490690909 433.420255,1.13672727 C435.150905,1.62924231 436.767096,2.47055625 438.173236,3.61090909 C439.400881,4.65487536 440.355267,5.99303098 440.950865,7.50545455 C441.580102,9.09076364 441.883484,10.7906182 441.849775,12.4996364 C441.983165,15.3931001 441.091425,18.2389801 439.337324,20.5178182 C437.249552,22.8221238 434.449299,24.3262613 431.404451,24.7789091 L440.863222,43.1061818 L446.735345,43.1061818 L446.735345,47.9629091 L436.557447,47.9629091 L425.125571,25.7869091 L417.370233,25.7869091 L417.370233,43.1061818 L423.646865,43.1061818 L423.646865,47.9629091 L404.142785,47.9629091 L404.142785,42.9229091 L404.142785,42.9229091 Z M426.157069,20.7010909 C427.685215,20.7469091 429.204371,20.4994909 430.640378,19.968 C431.674124,19.5510545 432.606742,18.9096 433.375309,18.0894545 C434.00904,17.3265818 434.483215,16.4377091 434.764124,15.4778182 C435.033796,14.5087636 435.168633,13.5076364 435.168633,12.4996364 C435.254918,10.3939014 434.356997,8.37110816 432.74832,7.04727273 C430.774927,5.66915666 428.410857,4.99278569 426.022233,5.12290909 L417.325287,5.12290909 L417.325287,20.7010909 L426.157069,20.7010909 L426.157069,20.7010909 Z" id="Shape"></path>
                    <path d="M465.567491,42.9229091 L470.945215,42.9229091 L470.945215,5.12290909 L465.565244,5.12290909 L465.565244,0.220363636 L482.826545,0.220363636 L482.826545,5.12290909 L477.49152,5.12290909 L477.49152,42.9229091 L482.826545,42.9229091 L482.826545,47.7796364 L465.567491,47.7796364 L465.567491,42.9229091 Z M507.57576,5.12290909 L501.431716,5.12290909 L501.431716,0.220363636 L516.989585,0.220363636 L523.848262,17.448 L530.484458,34.6756364 L543.934385,0.220363636 L559.672036,0.220363636 L559.672036,5.12290909 L553.75272,5.12290909 L553.75272,42.9229091 L559.672036,42.9229091 L559.672036,47.7796364 L542.680407,47.7796364 L542.680407,42.9229091 L548.060378,42.9229091 L548.060378,5.67272727 L531.291229,47.8712727 L529.587796,47.8712727 L513.000676,5.71854545 L513.000676,43.0145455 L518.335702,43.0145455 L518.335702,47.8712727 L501.431716,47.8712727 L501.431716,42.9229091 L507.395978,42.9229091 L507.57576,5.12290909 Z M578.814305,42.9229091 L585.135884,42.9229091 L585.135884,5.12290909 L578.814305,5.12290909 L578.814305,0.220363636 L618,0.220363636 L618,13.4618182 L612.70992,13.4618182 L612.70992,5.12290909 L591.547353,5.12290909 L591.547353,20.7469091 L606.118669,20.7469091 L606.118669,16.1650909 L610.154771,16.1650909 L610.154771,30.8727273 L606.118669,30.8727273 L606.118669,26.0618182 L591.637244,26.0618182 L591.637244,42.9229091 L612.799811,42.9229091 L612.799811,34.2632727 L618,34.2632727 L618,47.7796364 L578.814305,47.7796364 L578.814305,42.9229091 Z" id="Shape"></path>
                </g>
                <g id="Group" fill="#FFDA00">
                    <path d="M189.044263,112.5 C186.668032,112.502982 184.390307,113.452869 182.712161,115.140697 C181.034015,116.828525 180.092915,119.116035 180.09589,121.5 C178.371254,152.88975 152.562264,177.4575 121.303512,177.4575 C90.0447611,177.4575 64.2335279,152.8875 62.5111344,121.5 C63.1281404,117.965975 61.5961625,114.401525 58.6110792,112.42575 C55.6297691,110.454848 51.7648784,110.454848 48.7835683,112.42575 C45.7976349,114.400935 44.264726,117.965501 44.8812704,121.5 C44.8812704,148.9905 59.4655479,174.39525 83.1372454,188.1405 C106.800222,201.886567 135.983976,201.886567 159.646953,188.1405 C183.320893,174.393 197.902936,148.9905 197.902936,121.5 C197.909389,116.570541 193.957421,112.555522 189.044263,112.5 L189.044263,112.5 Z" id="Path"></path>
                    <path d="M217.230515,47.79 L194.502995,51.57 C193.43831,51.743058 192.355686,51.391337 191.594213,50.625 C190.830856,49.8579622 190.480542,48.7701285 190.652279,47.7 L194.323579,24.795 C173.425083,8.74318877 147.845448,0.0307693512 121.52554,0 L116.605056,0 C51.1316751,2.53575 -0.396597944,57.105 0.46011342,122.9985 C1.31682478,188.892 54.2445425,242.0865 119.762778,242.901 C185.27877,243.7155 239.500525,191.853 241.974577,126 L241.974577,121.5 C242.038468,94.8673033 233.340856,68.9576456 217.230515,47.79 Z M212.444594,127.395 C209.311542,176.37975 168.397968,214.209 119.603546,213.2415 C70.8068813,212.274 31.4093721,172.85175 30.2005569,123.77925 C28.9894989,74.70675 66.3954906,33.36975 115.084506,29.9688868 L121.390978,29.9688868 C139.989969,29.877505 158.163416,35.5511276 173.426101,46.215 L169.891606,68.715 C169.714433,69.7815 170.064294,70.8705 170.829054,71.631 C171.596058,72.3915 172.679282,72.73125 173.740079,72.54 L196.11101,68.85 C206.892739,84.2728755 212.659494,102.662077 212.621951,121.5 C212.621951,123.435 212.576913,125.415 212.442351,127.395 L212.444594,127.395 Z" id="Shape"></path>
                </g>
            </g>
        </g>
    </g>
</svg>