<svg class="solo-logo-mark" viewBox="0 0 55 54"><title>Happy Prime logo mark gray</title><g fill="#3F3F3F" fill-rule="evenodd"><path d="M43.09 25a2 2 0 0 0-2 2c-.385 6.976-6.154 12.435-13.14 12.435-6.986 0-12.755-5.46-13.14-12.435a2 2 0 1 0-3.94 0 17.1 17.1 0 1 0 34.2 0 2 2 0 0 0-1.98-2z"/><path d="M49.39 10.62l-5.08.84a.75.75 0 0 1-.86-.86l.82-5.09A26.86 26.86 0 0 0 28 0h-1.1C12.267.564.75 12.69.942 27.333c.191 14.643 12.02 26.464 26.664 26.645 14.643.18 26.76-11.344 27.314-25.978v-1a26.84 26.84 0 0 0-5.53-16.38zm-1.07 17.69c-.7 10.886-9.844 19.292-20.75 19.077-10.906-.215-19.711-8.976-19.982-19.88-.27-10.905 8.09-20.092 18.972-20.847h1.41a20.21 20.21 0 0 1 11.63 3.61l-.79 5a.74.74 0 0 0 .86.85l5-.82A20.27 20.27 0 0 1 48.36 27c0 .43-.01.87-.04 1.31z" fill-rule="nonzero"/></g></svg>