<svg class="solo-word-mark" viewBox="0 0 275 22" xmlns="http://www.w3.org/2000/svg"><title>Happy Prime</title><g fill="#3f3f3f" fill-rule="evenodd"><path d="M.445 19.26h2.493V2.76H.445V.62h7.98v2.14H5.81v6.62h9.975V2.76h-2.633V.62h7.98v2.14H18.58v16.5h2.494v2.12h-7.98v-2.12h2.554V11.7H5.672v7.56h2.553v2.12H.245z"/><path d="M45.572.62v2.14h-1.995c.838 2.44 1.476 4.38 1.995 5.84.519 1.46.798 2.4.938 2.86.459 1.38.898 2.72 1.297 4 .399 1.28.778 2.58 1.097 3.76h2.454v2.12h-8.08v-2.08h2.693l-1.536-5.52h-7.98l-1.516 5.52h2.653v2.12h-8.1v-2.12h2.474c.34-1.28.738-2.62 1.157-4 .42-1.38.858-2.8 1.337-4.22s.918-2.84 1.396-4.24c.48-1.4.918-2.74 1.377-4h-1.796V.62h10.135zm-1.576 10.94c-.24-.78-.559-2-.997-3.34-.44-1.34-1.018-3.28-1.776-5.46h-1.436a146.936 146.936 0 0 0-1.796 5.46c-.439 1.44-.778 2.56-.997 3.34h7.002zm15.821 7.7h2.693V2.76h-2.693V.62h9.556a8.898 8.898 0 0 1 3.531.6 5.984 5.984 0 0 1 2.175 1.48 5.21 5.21 0 0 1 1.097 2 8.26 8.26 0 0 1 .3 2.14 6.153 6.153 0 0 1-.62 2.96 4.575 4.575 0 0 1-1.755 1.84 7.41 7.41 0 0 1-2.673.94c-1.121.183-2.256.27-3.392.26h-2.514v6.38h2.833v2.12h-8.538v-2.08zM65.383 11h3.192a8.36 8.36 0 0 0 2.434-.32 3.769 3.769 0 0 0 1.496-.88c.373-.358.647-.805.798-1.3.145-.534.22-1.086.22-1.64a4.166 4.166 0 0 0-1.058-3.04 3.984 3.984 0 0 0-2.992-1.06h-3.99l-.1 8.24zm19.471 8.26h2.713V2.76h-2.713V.62h9.556a8.898 8.898 0 0 1 3.532.6 5.984 5.984 0 0 1 2.174 1.48c.51.577.884 1.26 1.097 2a8.26 8.26 0 0 1 .3 2.14 6.153 6.153 0 0 1-.619 2.96 4.575 4.575 0 0 1-1.755 1.84 7.41 7.41 0 0 1-2.674.94 19.72 19.72 0 0 1-3.371.26H90.46v6.38h2.833v2.12h-8.439v-2.08zM90.42 11h3.212a8.2 8.2 0 0 0 2.414-.32 3.848 3.848 0 0 0 1.516-.88 3.2 3.2 0 0 0 .779-1.3 6.262 6.262 0 0 0 .219-1.64 4.166 4.166 0 0 0-1.057-3.04 3.984 3.984 0 0 0-2.993-1.06h-3.99l-.1 8.24z" fill-rule="nonzero"/><path d="M116.156 19.26h2.853v-7.42l-6.424-9.1h-2.613V.62h8.458v2.12h-2.693l4.928 6.98 4.708-6.98h-2.793V.62h8.26v2.12h-2.813l-6.145 9.1v7.42h2.933v2.1h-8.659zM146.34 11c0 1.966-1.59 3.56-3.55 3.56a3.556 3.556 0 0 1-3.551-3.56c0-1.966 1.59-3.56 3.55-3.56a3.556 3.556 0 0 1 3.552 3.56z"/><path d="M154.76 19.26h2.693V2.76h-2.693V.62h9.556a8.898 8.898 0 0 1 3.531.6 5.984 5.984 0 0 1 2.175 1.48c.509.577.884 1.26 1.097 2a8.26 8.26 0 0 1 .3 2.14 6.153 6.153 0 0 1-.62 2.96 4.575 4.575 0 0 1-1.755 1.84 7.41 7.41 0 0 1-2.673.94c-1.114.183-2.242.27-3.372.26h-2.633v6.38h2.913v2.12h-8.44l-.08-2.08zm5.566-8.26h3.212a8.3 8.3 0 0 0 2.414-.32 3.848 3.848 0 0 0 1.516-.88c.36-.365.626-.81.778-1.3.146-.534.22-1.086.22-1.64a4.166 4.166 0 0 0-1.058-3.04 3.984 3.984 0 0 0-2.992-1.06h-3.99l-.1 8.24zm19.511 8.26h2.933V2.76h-2.933V.62h9.975c1.032-.016 2.06.118 3.053.4a5.98 5.98 0 0 1 2.115 1.08 4.3 4.3 0 0 1 1.236 1.7c.28.692.415 1.434.4 2.18a5.269 5.269 0 0 1-1.118 3.5 5.98 5.98 0 0 1-3.53 1.86l4.209 8h2.613v2.12h-4.529l-5.087-9.68h-3.451v7.56h2.793v2.12h-8.679v-2.2zm9.796-9.7c.68.02 1.356-.088 1.995-.32.46-.182.875-.462 1.217-.82.282-.333.493-.721.618-1.14.12-.423.18-.86.18-1.3a2.903 2.903 0 0 0-1.077-2.38 4.839 4.839 0 0 0-2.993-.84h-3.87v6.8h3.93z" fill-rule="nonzero"/><path d="M207.17 19.26h2.393V2.76h-2.394V.62h7.681v2.14h-2.374v16.5h2.374v2.12h-7.68zm18.693-16.5h-2.734V.62h6.923l3.052 7.52 2.953 7.52L242.042.62h7.003v2.14h-2.634v16.5h2.634v2.12h-7.561v-2.12h2.394V3l-7.462 18.42h-.758l-7.381-18.4V19.3h2.374v2.12h-7.522v-2.16h2.654zm31.7 16.5h2.813V2.76h-2.813V.62H275V6.4h-2.354V2.76h-9.417v6.82h6.484v-2h1.796V14h-1.796v-2.1h-6.444v7.36h9.417v-3.78H275v5.9h-17.437z"/></g></svg>