<svg viewBox="0 0 201 54" xmlns="http://www.w3.org/2000/svg"><title>Happy Prime logo</title><g fill="none" fill-rule="evenodd"><g fill="#3F3F3F"><path d="M63.38 31.13h1.25v-8.25h-1.25v-1.07h4v1.07h-1.31v3.31h5v-3.31h-1.32v-1.07h4v1.07h-1.28v8.25h1.25v1.06h-4v-1.06H71v-3.78h-5v3.78h1.28v1.06h-4z"/><path d="M86 21.81v1.07h-1c.42 1.22.74 2.19 1 2.92s.4 1.2.47 1.43c.23.69.45 1.36.65 2 .2.64.39 1.29.55 1.88h1.23v1.06h-4.05v-1.04h1.35l-.77-2.76h-4l-.76 2.76H82v1.06h-4.06v-1.06h1.24c.17-.64.37-1.31.58-2 .21-.69.43-1.4.67-2.11.24-.71.46-1.42.7-2.12.24-.7.46-1.37.69-2h-.9v-1.09H86zm-.79 5.47c-.12-.39-.28-1-.5-1.67-.22-.67-.51-1.64-.89-2.73h-.72a73.338 73.338 0 0 0-.9 2.73c-.22.72-.39 1.28-.5 1.67h3.51zm7.93 3.85h1.35v-8.25h-1.35v-1.07h4.79a4.47 4.47 0 0 1 1.77.3 3 3 0 0 1 1.09.74 2.6 2.6 0 0 1 .55 1c.097.349.147.708.15 1.07a3.07 3.07 0 0 1-.31 1.48 2.29 2.29 0 0 1-.88.92 3.72 3.72 0 0 1-1.34.47 10 10 0 0 1-1.7.13H96v3.19h1.42v1.06h-4.28v-1.04zM95.93 27h1.6a4.2 4.2 0 0 0 1.22-.16 1.89 1.89 0 0 0 .75-.44 1.51 1.51 0 0 0 .4-.65 3.12 3.12 0 0 0 .11-.82 2.08 2.08 0 0 0-.53-1.52 2 2 0 0 0-1.5-.53h-2L95.93 27zm9.76 4.13h1.36v-8.25h-1.36v-1.07h4.79a4.47 4.47 0 0 1 1.77.3 3 3 0 0 1 1.09.74 2.6 2.6 0 0 1 .55 1c.097.349.147.708.15 1.07a3.07 3.07 0 0 1-.31 1.48 2.29 2.29 0 0 1-.88.92 3.72 3.72 0 0 1-1.34.47 9.91 9.91 0 0 1-1.69.13h-1.32v3.19h1.42v1.06h-4.23v-1.04zm2.79-4.13h1.61a4.12 4.12 0 0 0 1.21-.16 1.93 1.93 0 0 0 .76-.44 1.6 1.6 0 0 0 .39-.65 3.12 3.12 0 0 0 .11-.82 2.08 2.08 0 0 0-.53-1.52 2 2 0 0 0-1.5-.53h-2l-.05 4.12z" fill-rule="nonzero"/><path d="M121.38 31.13h1.43v-3.71l-3.22-4.55h-1.31v-1.06h4.24v1.06h-1.35l2.47 3.49 2.36-3.49h-1.4v-1.06h4.14v1.06h-1.41l-3.08 4.55v3.71h1.47v1.05h-4.34zM136.51 27a1.78 1.78 0 1 1-3.56 0 1.78 1.78 0 0 1 3.56 0z"/><path d="M140.73 31.13h1.35v-8.25h-1.35v-1.07h4.79a4.47 4.47 0 0 1 1.77.3 3 3 0 0 1 1.09.74 2.6 2.6 0 0 1 .55 1c.097.349.147.708.15 1.07a3.07 3.07 0 0 1-.31 1.48 2.29 2.29 0 0 1-.88.92 3.72 3.72 0 0 1-1.34.47 9.91 9.91 0 0 1-1.69.13h-1.32v3.19H145v1.06h-4.23l-.04-1.04zm2.79-4.13h1.61a4.17 4.17 0 0 0 1.21-.16 1.93 1.93 0 0 0 .76-.44 1.6 1.6 0 0 0 .39-.65 3.12 3.12 0 0 0 .11-.82 2.08 2.08 0 0 0-.53-1.52 2 2 0 0 0-1.5-.53h-2l-.05 4.12zm9.78 4.13h1.47v-8.25h-1.47v-1.07h5a5.31 5.31 0 0 1 1.53.2 3 3 0 0 1 1.06.54c.274.228.487.52.62.85.14.346.208.717.2 1.09a2.63 2.63 0 0 1-.56 1.75 3 3 0 0 1-1.77.93l2.11 4h1.31v1.06h-2.27l-2.55-4.84h-1.73v3.78h1.4v1.06h-4.35v-1.1zm4.91-4.85c.34.01.68-.044 1-.16a1.72 1.72 0 0 0 .61-.41 1.59 1.59 0 0 0 .31-.57c.06-.211.09-.43.09-.65a1.45 1.45 0 0 0-.54-1.19 2.43 2.43 0 0 0-1.5-.42h-1.94v3.4h1.97z" fill-rule="nonzero"/><path d="M167 31.13h1.2v-8.25H167v-1.07h3.85v1.07h-1.19v8.25h1.19v1.06H167zm9.37-8.25H175v-1.07h3.47l1.53 3.76 1.48 3.76 3-7.52h3.51v1.07h-1.32v8.25h1.32v1.06h-3.79v-1.06h1.2V23l-3.74 9.21h-.38l-3.7-9.2v8.14h1.19v1.06H175v-1.08h1.33zm15.89 8.25h1.41v-8.25h-1.41v-1.07H201v2.89h-1.18v-1.82h-4.72v3.41h3.25v-1h.9v3.21h-.9v-1.05h-3.23v3.68h4.72v-1.89H201v2.95h-8.74z"/></g><g fill="#F9E000"><path d="M43.09 25a2 2 0 0 0-2 2c-.385 6.976-6.154 12.435-13.14 12.435-6.986 0-12.755-5.46-13.14-12.435a2 2 0 1 0-3.94 0 17.1 17.1 0 1 0 34.2 0 2 2 0 0 0-1.98-2z"/><path d="M49.39 10.62l-5.08.84a.75.75 0 0 1-.86-.86l.82-5.09A26.86 26.86 0 0 0 28 0h-1.1C12.267.564.75 12.69.942 27.333c.191 14.643 12.02 26.464 26.664 26.645 14.643.18 26.76-11.344 27.314-25.978v-1a26.84 26.84 0 0 0-5.53-16.38zm-1.07 17.69c-.7 10.886-9.844 19.292-20.75 19.077-10.906-.215-19.711-8.976-19.982-19.88-.27-10.905 8.09-20.092 18.972-20.847h1.41a20.21 20.21 0 0 1 11.63 3.61l-.79 5a.74.74 0 0 0 .86.85l5-.82A20.27 20.27 0 0 1 48.36 27c0 .43-.01.87-.04 1.31z" fill-rule="nonzero"/></g></g></svg>